# xmcd
#
# Track frame offsets:
#	182
#	10885
#	21285
#	31790
#	44010
#	54197
#	65895
#	76452
#	89107
#	98937
#	111905
#	123235
#	135065
#	146220
#	157340
#	167355
#	176825
#	187672
#	201427
#	210447
#
# Disc length: 2949 seconds
#
# Revision: 3
# Processed by: cddbd v1.5.1PL2 Copyright (c) Steve Scherf et al.
# Submitted via: audiograbber 1.83.01
#
DISCID=190b8314
DTITLE=Various Artist - Way Out West (From Time records)
DYEAR=1993
DGENRE=Country
TTITLE0=How the west was won
TTITLE1=The call of the faraway hills
TTITLE2=Mom and dad waltz
TTITLE3=red river valley
TTITLE4=My darling clementine
TTITLE5=John henry
TTITLE6=Wolverten mountain
TTITLE7=Remington ride
TTITLE8=The magnificent seven
TTITLE9=Bud's bonnie
TTITLE10=Duel in the sun
TTITLE11=She wore a yellow ribbon
TTITLE12=Steel guitar rag
TTITLE13=The big country
TTITLE14=Green leaves of summer
TTITLE15=More and more
TTITLE16=The unforgiven
TTITLE17=High noon
TTITLE18=Texas playboy rag
TTITLE19=Panhandle rag
EXTD=Artists not listed
EXTT0=
EXTT1=
EXTT2=
EXTT3=
EXTT4=
EXTT5=
EXTT6=
EXTT7=
EXTT8=
EXTT9=
EXTT10=
EXTT11=
EXTT12=
EXTT13=
EXTT14=
EXTT15=
EXTT16=
EXTT17=
EXTT18=
EXTT19=
PLAYORDER=
